# xmcd
#
# Track frame offsets: 
#        150
#        17025
#        33675
#        43125
#        63825
#        79650
#        93525
#        112125
#        126000
#        138900
#        152550
#        166875
#        184350
#
# Disc length: 2634 seconds
#
# Revision: 0
# Processed by: cddbd v1.5.2PL0 Copyright (c) Steve Scherf et al.
# Submitted via: ExactAudioCopy v1.2
#
DISCID=ad0a480d
DTITLE=Pistol Pete Wearn - Live at Liege
DYEAR=2019
DGENRE=Blues
TTITLE0=Wild About You Baby (Live)
TTITLE1=When the Sun Goes Down (Live)
TTITLE2=Black Cat Bone (Live)
TTITLE3=Riverside Blues (Live)
TTITLE4=Young, Free and Beautiful (Live)
TTITLE5=Just Another Sinner (Live)
TTITLE6=Sitting on Top of the World (Live)
TTITLE7=Going Down South (Live)
TTITLE8=Eight Miles from Stafford (Live)
TTITLE9=Train I Ride (Live)
TTITLE10=Nobody Knows You (When You're Down and Out) (Live)
TTITLE11=Gonna Look Just Like a Monkey (When You Get Old) (Live)
TTITLE12=Devil in Me (Live)
EXTD=
EXTT0=
EXTT1=
EXTT2=
EXTT3=
EXTT4=
EXTT5=
EXTT6=
EXTT7=
EXTT8=
EXTT9=
EXTT10=
EXTT11=
EXTT12=
PLAYORDER=
